# xmcd CD database file
#
# Track frame offsets:
#	150
#	16097
#	28682
#	42415
#	56400
#	70477
#	86527
#	102955
#	116430
#	129429
#	141282
#	156154
#	170982
#	184719
#	198971
#	207404
#	221531
#	236639
#	247625
#	257659
#	272712
#	288657
#	305634
#	322703
#	337928
#
# Disc length: 4693 seconds
#
# Revision: 2
# Processed by: cddbd v1.4PL0 Copyright (c) Steve Scherf et al.
# Submitted via: CDex 1.40Release
#
DISCID=69125319
DTITLE=En el Bar - En el Bar
DYEAR=1900
DGENRE=Blues
TTITLE0=SANTA LUCIA
TTITLE1=TE AMO
TTITLE2=CONTIGO APRENDI
TTITLE3=Y COMO ES EL
TTITLE4=CANTARES
TTITLE5=LO QUE NO FUE NO SERA
TTITLE6=EL BREVE ESPACIO
TTITLE7=OJALA
TTITLE8=QUIEN TE CANTARA
TTITLE9=AY AMOR
TTITLE10=EL AMOR DESPUES DEL AMOR
TTITLE11=FUEGO CONTRA FUEGO
TTITLE12=TOMAME O DEJAME
TTITLE13=UN BUEN PERDEDOR
TTITLE14=ANSIDEDAD
TTITLE15=TUS VIEJAS CARTAS
TTITLE16=AQUIEN
TTITLE17=EN EL ULTIMO TRAGO
TTITLE18=TAN SOLO
TTITLE19=COMO TE VA MI AMOR
TTITLE20=TODO A PLOMO
TTITLE21=PASO LA VIDA PENSANDO EN TI
TTITLE22=NIÑA
TTITLE23=YOLANDA (WITH PABLO MILANES)
TTITLE24=PARA VIVIR (CON SILVIO RODRIGUEZ)
EXTD=ID3G: 0
EXTT0=
EXTT1=
EXTT2=
EXTT3=
EXTT4=
EXTT5=
EXTT6=
EXTT7=
EXTT8=
EXTT9=
EXTT10=
EXTT11=
EXTT12=
EXTT13=
EXTT14=
EXTT15=
EXTT16=
EXTT17=
EXTT18=
EXTT19=
EXTT20=
EXTT21=
EXTT22=
EXTT23=
EXTT24=
PLAYORDER=
